<svg viewBox="0 0 143.46 23.21" xmlns="http://www.w3.org/2000/svg"><g fill="#fff" stroke="#231815" stroke-width=".35"><path d="m23.37 1.66c-2.75.23-3 .4-3 3.19v13.56c0 2.82.27 3 3 3.18v.94h-9v-.94c2.85-.2 3.15-.36 3.15-3.18v-6.72h-11.47v6.72c0 2.78.27 3 3 3.18v.94h-8.81v-.94c2.69-.2 3-.36 3-3.18v-13.56c0-2.82-.27-3-3-3.19v-.94h8.7v.94c-2.55.23-2.82.4-2.82 3.19v5.43h11.37v-5.43c0-2.79-.26-3-2.88-3.19v-.94h8.76z"/><path d="m47.8 11.36c0 7.25-5.07 11.64-11.21 11.64a10.85 10.85 0 0 1 -10.91-11.14c0-6.04 4.23-11.65 11.32-11.65a10.82 10.82 0 0 1 10.8 11.15zm-18.69-.44c0 6.31 3.45 10.91 8.19 10.91 3.72 0 7.08-3.12 7.08-9.57 0-7.08-3.69-10.84-8.09-10.84-3.76 0-7.18 3.22-7.18 9.5z"/><path d="m66.6 17.26c-.2 1-.91 4.23-1.21 5.27h-15.21v-.94c2.82-.2 3.09-.43 3.09-3.28v-13.43c0-2.85-.23-3-3-3.22v-.94h8.76v.94c-2.65.2-3 .37-3 3.22v13.26c0 1.81.17 2.48.78 2.82a7.47 7.47 0 0 0 3.22.43c1.84 0 3-.16 3.76-1a9.66 9.66 0 0 0 1.71-3.29z"/><path d="m68.31 22.53v-.94c2.75-.2 3-.4 3-3.25v-13.43c0-2.85-.27-3-3-3.25v-.94h8.89v.94c-2.75.2-3 .4-3 3.25v13.43c0 2.89.27 3.05 3 3.25v.94z"/><path d="m89.32.72c4.26 0 7.42.87 9.5 2.85a9.91 9.91 0 0 1 2.82 7.22 10.68 10.68 0 0 1 -4.13 9c-2.52 1.95-5.84 2.78-10 2.78h-8v-.9c2.89-.2 3.16-.4 3.16-3.26v-13.5c0-2.88-.27-3-2.85-3.22v-1zm-3.69 17.42c0 2.55 1.1 3.19 3.55 3.19 6.28 0 9.17-4.7 9.17-10.07 0-3.46-1.28-6.45-4-8a10.47 10.47 0 0 0 -5.71-1.37 5.6 5.6 0 0 0 -2.62.4c-.33.24-.43.61-.43 1.91z"/><path d="m116.3 22.53v-.94c2.12-.26 2.42-.53 2-1.84s-1.11-3.12-1.84-5.17h-7.15c-.54 1.51-1 2.92-1.48 4.33-.74 2.11-.44 2.45 2.08 2.68v.94h-7.28v-.94c2.11-.3 2.58-.5 3.76-3.45l6.92-17.62 1-.31c2.08 5.78 4.32 12.15 6.47 18 1.08 2.89 1.51 3.19 3.7 3.39v.94zm-3.3-17.95c-1.08 2.88-2.15 5.8-3.16 8.56h6.16z"/><path d="m143.29 1.66c-2.32.27-2.69.6-4 2.65-1.51 2.45-2.65 4.4-4.26 7.35a3.78 3.78 0 0 0 -.54 2.11v4.57c0 2.82.27 3.05 3.36 3.25v.94h-9.5v-.94c3-.2 3.29-.4 3.29-3.25v-4.47a3.39 3.39 0 0 0 -.71-2c-1.17-2.08-2.38-4.26-4.22-7.38-1.35-2.26-1.71-2.63-3.71-2.83v-.94h8v.94c-2.38.3-2.31.7-1.68 1.81 1.41 2.68 3.06 5.44 4.5 8 1.24-2.21 3.06-5.5 4-7.55.77-1.68.67-1.94-1.95-2.21v-.99h7.42z"/></g></svg>