<svg viewBox="0 0 178.27 28.85" xmlns="http://www.w3.org/2000/svg"><g fill="#fff" stroke="#231815" stroke-width=".43"><path d="m29 2.06c-3.42.29-3.75.5-3.75 4v16.81c0 3.51.33 3.71 3.71 4v1.13h-11.14v-1.16c3.54-.26 3.92-.46 3.92-4v-8.31h-14.22v8.34c0 3.46.33 3.71 3.75 4v1.13h-10.97v-1.16c3.34-.26 3.67-.46 3.67-4v-16.84c0-3.5-.33-3.67-3.75-4v-1.11h10.78v1.17c-3.17.29-3.5.5-3.5 4v6.76h14.24v-6.82c0-3.46-.33-3.67-3.59-4v-1.11h10.85z"/><path d="m59.4 14.11c0 9-6.3 14.52-13.93 14.52a13.48 13.48 0 0 1 -13.56-13.89c0-7.51 5.26-14.47 14-14.47a13.44 13.44 0 0 1 13.49 13.84zm-23.23-.54c0 7.84 4.29 13.56 10.18 13.56 4.63 0 8.8-3.88 8.8-11.89 0-8.8-4.59-13.47-10.06-13.47-4.67 0-8.92 4-8.92 11.8z"/><path d="m82.76 21.45c-.25 1.3-1.13 5.26-1.5 6.55h-18.9v-1.16c3.5-.26 3.84-.55 3.84-4.09v-16.69c0-3.54-.29-3.75-3.67-4v-1.17h10.88v1.17c-3.29.25-3.67.46-3.67 4v16.48c0 2.25.21 3.09 1 3.5a9.31 9.31 0 0 0 4 .54c2.29 0 3.71-.2 4.67-1.29a12.17 12.17 0 0 0 2.13-4.09z"/><path d="m84.88 28v-1.16c3.42-.26 3.76-.51 3.76-4.05v-16.69c0-3.54-.34-3.79-3.76-4v-1.21h11.06v1.17c-3.43.25-3.76.5-3.76 4v16.73c0 3.59.33 3.79 3.76 4.05v1.16z"/><path d="m111 .89c5.3 0 9.22 1.09 11.81 3.55a12.28 12.28 0 0 1 3.5 9c0 5-1.92 8.72-5.13 11.14s-7.27 3.42-12.4 3.42h-9.89v-1.12c3.59-.25 3.93-.5 3.93-4.05v-16.73c0-3.58-.34-3.75-3.55-4v-1.21zm-4.6 21.65c0 3.17 1.38 4 4.42 4 7.8 0 11.39-5.84 11.39-12.51 0-4.3-1.58-8-4.92-10a13 13 0 0 0 -7.09-1.71 6.83 6.83 0 0 0 -3.25.5c-.42.29-.55.75-.55 2.38z"/><path d="m144.52 28v-1.16c2.63-.34 3-.67 2.46-2.3s-1.37-3.88-2.29-6.42h-8.88c-.67 1.87-1.3 3.63-1.84 5.38-.92 2.63-.54 3 2.59 3.34v1.16h-9v-1.16c2.62-.38 3.21-.63 4.67-4.3l8.58-21.9 1.29-.37c2.59 7.17 5.38 15.09 8.05 22.35 1.34 3.59 1.88 4 4.59 4.22v1.16zm-4.08-22.31h-.09c-1.33 3.59-2.67 7.21-3.92 10.63h7.68z"/><path d="m178.06 2.06c-2.88.33-3.34.75-5 3.29-1.87 3.05-3.29 5.47-5.29 9.14a4.68 4.68 0 0 0 -.67 2.63v5.67c0 3.5.33 3.79 4.17 4.05v1.16h-11.77v-1.16c3.71-.26 4.08-.51 4.08-4.05v-5.55a4.25 4.25 0 0 0 -.87-2.46c-1.46-2.59-3-5.3-5.26-9.18-1.67-2.83-2.13-3.29-4.63-3.54v-1.17h10v1.17c-3 .37-2.88.87-2.09 2.25 1.76 3.34 3.8 6.76 5.59 9.89 1.55-2.76 3.8-6.84 5-9.39 1-2.08.83-2.42-2.42-2.75v-1.17h9.22z"/></g></svg>