<svg viewBox="0 0 308.01 50.08" xmlns="http://www.w3.org/2000/svg"><g fill="#fff" stroke="#fafafa" stroke-miterlimit="10"><path d="m50.26 3.71c-5.91.5-6.48.86-6.48 6.84v29.09c0 6 .57 6.41 6.4 6.84v2h-19.29v-2c6.12-.43 6.77-.79 6.77-6.84v-14.4h-24.56v14.4c0 6 .58 6.41 6.48 6.84v2h-18.94v-2c5.76-.43 6.36-.79 6.36-6.84v-29.09c0-6.05-.6-6.34-6.5-6.84v-2h18.65v2c-5.47.5-6 .86-6 6.84v11.66h24.51v-11.66c0-6-.58-6.34-6.2-6.84v-2h18.8z"/><path d="m102.67 24.52c0 15.55-10.87 25.06-24 25.06s-23.4-10.16-23.4-24c0-13 9.07-25 24.19-25 12.2.03 23.21 9.54 23.21 23.94zm-40.11-.94c0 13.54 7.44 23.42 17.57 23.42 8 0 15.2-6.69 15.2-20.52 0-15.21-7.92-23.28-17.33-23.28-8.09 0-15.44 6.92-15.44 20.38z"/><path d="m143 37.19c-.43 2.23-1.94 9.07-2.59 11.31h-32.63v-2c6-.43 6.62-.94 6.62-7.06v-28.82c0-6.12-.5-6.48-6.33-6.91v-2h18.79v2c-5.69.43-6.33.79-6.33 6.91v28.44c0 3.89.36 5.33 1.65 6s3.89.94 6.91.94c4 0 6.41-.36 8.07-2.23a21.2 21.2 0 0 0 3.67-7.06z"/><path d="m146.66 48.5v-2c5.9-.43 6.48-.87 6.48-7v-28.81c0-6.12-.58-6.55-6.48-7v-2h19.08v2c-5.9.43-6.48.86-6.48 7v28.8c0 6.2.58 6.56 6.48 7v2z"/><path d="m191.73 1.69c9.15 0 15.92 1.87 20.38 6.12 3.53 3.46 6 8.71 6 15.48 0 8.64-3.31 15.05-8.86 19.23s-12.53 6-21.38 6h-17.02v-2c6.19-.43 6.77-.86 6.77-7v-28.83c0-6.19-.58-6.48-6.12-6.91v-2.09zm-7.92 37.37c0 5.47 2.38 6.84 7.63 6.84 13.47 0 19.66-10.08 19.66-21.6 0-7.42-2.73-13.82-8.49-17.21-3.24-2.09-7.42-2.95-12.25-2.95-3 0-4.89.36-5.61.86s-.94 1.3-.94 4.11z"/><path d="m249.62 48.5v-2c4.54-.58 5.18-1.15 4.25-4s-2.38-6.7-4-11.09h-15.3c-1.15 3.24-2.23 6.26-3.17 9.29-1.58 4.54-.93 5.26 4.47 5.76v2h-15.63v-2c4.54-.65 5.55-1.08 8.07-7.42l14.9-37.8 2.23-.65c4.47 12.39 9.29 26.07 13.9 38.6 2.31 6.19 3.24 6.84 7.92 7.27v2zm-7.06-38.5h-.14c-2.3 6.19-4.61 12.46-6.77 18.36h13.25z"/><path d="m307.51 3.71c-5 .57-5.76 1.29-8.57 5.69-3.24 5.25-5.69 9.43-9.14 15.77a8.16 8.16 0 0 0 -1.16 4.53v9.79c0 6 .58 6.56 7.2 7v2h-20.37v-2c6.41-.43 7-.87 7-7v-9.57c0-1.44-.28-2.09-1.51-4.25-2.52-4.47-5.11-9.15-9.07-15.84-2.88-4.9-3.67-5.69-8-6.12v-2h17.21v2c-5.12.65-5 1.51-3.6 3.89 3 5.76 6.55 11.66 9.64 17.06 2.67-4.75 6.56-11.81 8.57-16.2 1.66-3.6 1.44-4.18-4.17-4.75v-2h15.91z"/></g></svg>